<svg xmlns="http://www.w3.org/2000/svg" viewBox="0 0 350 350"><defs><style>.cls-1{fill:#0b1314;}.cls-2{fill:#be1e2d;}.cls-3{fill:#008c9b;}.cls-4{fill:#92278f;}.cls-5{fill:#8dc63f;}.cls-6{fill:#fff597;}.cls-7{fill:#005e68;}.cls-8{fill:#7c0317;}.cls-9{fill:#ccb429;}.cls-10{fill:#c49a6c;}.cls-11{fill:#5e8e02;}.cls-12{fill:#5bb994;}.cls-13{fill:#4da07c;}.cls-14{fill:#87eecf;}.cls-15{fill:#1e1e1e;}.cls-16{fill:#2b2b2b;}.cls-17{fill:#313131;}.cls-18{fill:#fff;}.cls-19{fill:#424242;}.cls-20{fill:#604925;}.cls-21{fill:#3f2e17;}.cls-22{fill:#4f381a;}.cls-23{fill:#3d2c18;}.cls-24{fill:#49361c;}.cls-25{fill:#6a6572;}.cls-26{fill:#4d4954;}.cls-27{fill:#ccc;}.cls-28{fill:#a5312f;}.cls-29{fill:#8c1818;}.cls-30{fill:#e2e2e2;}.cls-31{fill:#303947;}.cls-32{fill:#1c2128;}.cls-33{fill:#afafaf;}.cls-34{fill:#b94f49;}.cls-35{fill:#912a2a;}.cls-36{fill:#262626;opacity:0.51;}.cls-37{fill:#d39807;}.cls-38{fill:#ffbc00;}.cls-39{fill:#777;}.cls-40{fill:#282828;}.cls-41{fill:#7f7f7f;}.cls-42{fill:#383838;}.cls-43{fill:#ff8f29;}.cls-44{fill:#d17d2a;}.cls-45{fill:#5e738c;}.cls-46{fill:#4a5c6d;}.cls-47{fill:#7852a0;}.cls-48{fill:#64448e;}.cls-49{fill:#465a6d;}.cls-50{fill:#334656;}.cls-51{fill:#5a5663;}.cls-52{fill:#a5a5a5;}.cls-53{fill:#d6ab8e;}.cls-54{fill:#bfa08c;}.cls-55{fill:#ddb99f;}</style></defs><g id="Background_1"><rect class="cls-1" width="350" height="350"/><polygon class="cls-2" points="240.75 312.27 241.72 314.25 243.91 314.57 242.33 316.12 242.7 318.3 240.75 317.27 238.79 318.3 239.16 316.12 237.58 314.57 239.77 314.25 240.75 312.27"/><polygon class="cls-3" points="98.08 189.95 95.99 190.68 95.41 192.82 94.07 191.06 91.86 191.17 93.12 189.35 92.33 187.28 94.45 187.91 96.18 186.53 96.23 188.74 98.08 189.95"/><polygon class="cls-3" points="27.77 130.06 25.68 130.79 25.11 132.93 23.76 131.17 21.55 131.28 22.81 129.46 22.02 127.39 24.14 128.03 25.87 126.64 25.92 128.85 27.77 130.06"/><polygon class="cls-4" points="250.84 21.74 248.76 22.48 248.18 24.61 246.83 22.85 244.62 22.96 245.88 21.14 245.1 19.07 247.22 19.71 248.94 18.32 248.99 20.53 250.84 21.74"/><polygon class="cls-4" points="32.21 275.31 33.41 279.39 36.78 276.79 35.36 280.81 39.61 280.69 36.1 283.09 39.61 285.5 35.36 285.38 36.78 289.39 33.41 286.8 32.21 290.88 31 286.8 27.63 289.39 29.06 285.38 24.8 285.5 28.31 283.09 24.8 280.69 29.06 280.81 27.63 276.79 31 279.39 32.21 275.31"/><polygon class="cls-5" points="333.42 331.08 333.91 332.75 335.29 331.68 334.7 333.33 336.45 333.28 335.01 334.26 336.45 335.25 334.7 335.2 335.29 336.84 333.91 335.78 333.42 337.45 332.92 335.78 331.54 336.84 332.13 335.2 330.38 335.25 331.82 334.26 330.38 333.28 332.13 333.33 331.54 331.68 332.92 332.75 333.42 331.08"/><polygon class="cls-4" points="72.91 8.73 74.08 10.88 76.24 12.06 74.08 13.24 72.91 15.39 71.73 13.24 69.57 12.06 71.73 10.88 72.91 8.73"/><polygon class="cls-6" points="141.88 15.39 143.06 19.73 147.4 20.91 143.06 22.09 141.88 26.43 140.71 22.09 136.36 20.91 140.71 19.73 141.88 15.39"/><polygon class="cls-6" points="144.24 18.55 143.55 20.91 144.24 23.26 141.88 22.57 139.53 23.26 140.22 20.91 139.53 18.55 141.88 19.24 144.24 18.55"/><polygon class="cls-6" points="298.58 240.67 299.75 247.2 306.28 248.38 299.75 249.56 298.58 256.09 297.4 249.56 290.87 248.38 297.4 247.2 298.58 240.67"/><polygon class="cls-6" points="300.93 246.03 300.24 248.38 300.93 250.74 298.58 250.05 296.22 250.74 296.91 248.38 296.22 246.03 298.58 246.72 300.93 246.03"/><polygon class="cls-3" points="294.72 43.05 295.9 49.58 302.43 50.76 295.9 51.94 294.72 58.47 293.54 51.94 287.01 50.76 293.54 49.58 294.72 43.05"/><polygon class="cls-3" points="297.08 48.4 296.39 50.76 297.08 53.12 294.72 52.43 292.37 53.12 293.06 50.76 292.37 48.4 294.72 49.09 297.08 48.4"/><polygon class="cls-3" points="186.35 144.92 187.04 148.71 190.83 149.4 187.04 150.08 186.35 153.87 185.67 150.08 181.88 149.4 185.67 148.71 186.35 144.92"/><polygon class="cls-6" points="132.88 305.03 133.56 308.82 137.35 309.51 133.56 310.19 132.88 313.98 132.19 310.19 128.41 309.51 132.19 308.82 132.88 305.03"/><polygon class="cls-5" points="69.25 206.31 69.66 208.62 71.97 209.03 69.66 209.45 69.25 211.76 68.83 209.45 66.52 209.03 68.83 208.62 69.25 206.31"/><polygon class="cls-2" points="86.83 93.85 87.51 97.64 91.3 98.32 87.51 99.01 86.83 102.8 86.14 99.01 82.36 98.32 86.14 97.64 86.83 93.85"/><path class="cls-6" d="M165.61,282a.56.56,0,1,1-.56-.56A.56.56,0,0,1,165.61,282Z"/><path class="cls-6" d="M150,301.38a.56.56,0,1,1-.56-.56A.56.56,0,0,1,150,301.38Z"/><path class="cls-6" d="M157,295.47a.56.56,0,1,1-.56-.55A.56.56,0,0,1,157,295.47Z"/><path class="cls-6" d="M115.35,202.31a.56.56,0,1,1-.55-.55A.56.56,0,0,1,115.35,202.31Z"/><path class="cls-6" d="M77.91,179.21a.56.56,0,1,1-.56-.56A.56.56,0,0,1,77.91,179.21Z"/><path class="cls-6" d="M152.84,160.36a.56.56,0,1,1-.56-.55A.56.56,0,0,1,152.84,160.36Z"/><circle class="cls-6" cx="54.69" cy="90.12" r="0.56"/><path class="cls-6" d="M185.72,321a.56.56,0,1,1-.56-.56A.56.56,0,0,1,185.72,321Z"/><path class="cls-6" d="M118.84,323.93a.56.56,0,1,1-.56-.56A.56.56,0,0,1,118.84,323.93Z"/><path class="cls-6" d="M187.81,289.1a1.33,1.33,0,1,1-1.33-1.33A1.32,1.32,0,0,1,187.81,289.1Z"/><path class="cls-2" d="M209.57,173.72a1.33,1.33,0,1,1-1.32-1.32A1.33,1.33,0,0,1,209.57,173.72Z"/><path class="cls-2" d="M329.74,14.84a1.33,1.33,0,1,1-1.33-1.33A1.33,1.33,0,0,1,329.74,14.84Z"/><path class="cls-3" d="M48.35,196.43a1.33,1.33,0,1,1-2.65,0,1.33,1.33,0,0,1,2.65,0Z"/><path class="cls-3" d="M89.48,207.71a1.33,1.33,0,1,1-1.33-1.33A1.32,1.32,0,0,1,89.48,207.71Z"/><path class="cls-3" d="M79.45,34.15a1.33,1.33,0,1,1-1.33-1.33A1.33,1.33,0,0,1,79.45,34.15Z"/><path class="cls-6" d="M9.33,212.21A1.33,1.33,0,1,1,8,210.89,1.33,1.33,0,0,1,9.33,212.21Z"/><path class="cls-7" d="M191.82,215.57A4.61,4.61,0,0,1,192,217a4.8,4.8,0,0,1-8.82,2.64,4.81,4.81,0,1,0,8.61-4Z"/><path class="cls-3" d="M187.23,221.78A4.8,4.8,0,0,0,192,217a4.61,4.61,0,0,0-.21-1.4,4.8,4.8,0,0,0-8.82,2.64,4.94,4.94,0,0,0,.21,1.4A4.82,4.82,0,0,0,187.23,221.78Z"/><path class="cls-8" d="M224.64,48.12a4.94,4.94,0,0,1,.21,1.4A4.8,4.8,0,0,1,216,52.16a4.8,4.8,0,1,0,8.61-4Z"/><path class="cls-2" d="M220,54.33a4.81,4.81,0,0,0,4.81-4.81,4.94,4.94,0,0,0-.21-1.4,4.8,4.8,0,0,0-8.82,2.64,4.61,4.61,0,0,0,.21,1.4A4.81,4.81,0,0,0,220,54.33Z"/><path class="cls-9" d="M36.22,78.87a4.7,4.7,0,0,1,.21,1.4,4.8,4.8,0,0,1-8.82,2.64,4.8,4.8,0,1,0,8.61-4Z"/><path class="cls-6" d="M31.62,85.08a4.81,4.81,0,0,0,4.81-4.81,4.7,4.7,0,0,0-.21-1.4,4.81,4.81,0,0,0-8.82,2.64,4.61,4.61,0,0,0,.21,1.4A4.78,4.78,0,0,0,31.62,85.08Z"/><path class="cls-3" d="M83.14,295.47a1.33,1.33,0,1,1-1.33-1.32A1.33,1.33,0,0,1,83.14,295.47Z"/><path class="cls-5" d="M15.13,281.42a1.33,1.33,0,1,1-1.32-1.33A1.32,1.32,0,0,1,15.13,281.42Z"/><path class="cls-5" d="M133.56,43.05a1.33,1.33,0,1,1-1.32-1.32A1.32,1.32,0,0,1,133.56,43.05Z"/><path class="cls-5" d="M144.53,223.74a1.33,1.33,0,0,1-2.65,0,1.33,1.33,0,1,1,2.65,0Z"/><path class="cls-4" d="M331.06,99.65a1.33,1.33,0,1,1-1.32-1.33A1.32,1.32,0,0,1,331.06,99.65Z"/><path class="cls-6" d="M287.57,320.46a.56.56,0,1,1-.56-.55A.56.56,0,0,1,287.57,320.46Z"/><path class="cls-6" d="M295.82,301.94a.56.56,0,1,1-.56-.56A.56.56,0,0,1,295.82,301.94Z"/><path class="cls-6" d="M332.49,280.09a.56.56,0,1,1-.56-.56A.56.56,0,0,1,332.49,280.09Z"/><path class="cls-6" d="M243.91,271.13a.56.56,0,1,1-.55-.56A.56.56,0,0,1,243.91,271.13Z"/><path class="cls-6" d="M279.9,276.61a.56.56,0,1,1-.56-.55A.56.56,0,0,1,279.9,276.61Z"/><path class="cls-6" d="M246.6,332.72a.56.56,0,1,1-.55-.56A.55.55,0,0,1,246.6,332.72Z"/><path class="cls-6" d="M314.28,81a.56.56,0,1,1-.56-.56A.56.56,0,0,1,314.28,81Z"/><path class="cls-6" d="M319.22,65.4a.56.56,0,1,1-.56-.56A.56.56,0,0,1,319.22,65.4Z"/><path class="cls-6" d="M315.27,101a.56.56,0,1,1-.56-.56A.56.56,0,0,1,315.27,101Z"/><circle class="cls-6" cx="333.42" cy="55.57" r="0.56"/><path class="cls-6" d="M265.76,155.29a.56.56,0,1,1-.56-.56A.56.56,0,0,1,265.76,155.29Z"/><path class="cls-6" d="M284.61,15.4a.56.56,0,1,1-.55-.56A.55.55,0,0,1,284.61,15.4Z"/><path class="cls-4" d="M111.22,238.48a.56.56,0,1,1-.56-.56A.56.56,0,0,1,111.22,238.48Z"/><path class="cls-4" d="M82.91,176.07a.56.56,0,1,1-.56-.56A.56.56,0,0,1,82.91,176.07Z"/><path class="cls-4" d="M179.25,247.36a.56.56,0,1,1-.56-.55A.56.56,0,0,1,179.25,247.36Z"/><path class="cls-4" d="M131.63,257.2a.56.56,0,1,1-.56-.55A.56.56,0,0,1,131.63,257.2Z"/><path class="cls-4" d="M134,141.91a.56.56,0,1,1-.56-.56A.56.56,0,0,1,134,141.91Z"/><path class="cls-4" d="M165.05,174a.56.56,0,1,1-.56-.56A.56.56,0,0,1,165.05,174Z"/><path class="cls-4" d="M76.8,162.6a.56.56,0,1,1-.56-.56A.56.56,0,0,1,76.8,162.6Z"/><path class="cls-4" d="M44.43,111.63a.56.56,0,1,1-.56-.56A.56.56,0,0,1,44.43,111.63Z"/><path class="cls-4" d="M76.8,48.78a.56.56,0,1,1-.56-.56A.56.56,0,0,1,76.8,48.78Z"/><circle class="cls-3" cx="152.84" cy="80.96" r="0.56"/><path class="cls-5" d="M201.4,16a.56.56,0,1,1-.56-.55A.56.56,0,0,1,201.4,16Z"/><path class="cls-4" d="M315.27,309.17a.56.56,0,1,1-.56-.56A.56.56,0,0,1,315.27,309.17Z"/><path class="cls-4" d="M219.65,288.33a.56.56,0,1,1-.56-.56A.56.56,0,0,1,219.65,288.33Z"/><path class="cls-4" d="M332.49,256.09a.56.56,0,1,1-.56-.56A.56.56,0,0,1,332.49,256.09Z"/><path class="cls-3" d="M119.39,138.76a.56.56,0,1,1-.55-.56A.55.55,0,0,1,119.39,138.76Z"/><path class="cls-3" d="M162.22,237.92a.56.56,0,1,1-.56-.56A.56.56,0,0,1,162.22,237.92Z"/><path class="cls-3" d="M82.91,167.56a.56.56,0,1,1-.56-.56A.56.56,0,0,1,82.91,167.56Z"/><path class="cls-3" d="M15.69,320.46a.56.56,0,1,1-.56-.55A.56.56,0,0,1,15.69,320.46Z"/><path class="cls-3" d="M111.78,308.61a.56.56,0,1,1-.56-.56A.56.56,0,0,1,111.78,308.61Z"/><path class="cls-3" d="M54.69,275.31a.56.56,0,1,1-.56-.56A.56.56,0,0,1,54.69,275.31Z"/><path class="cls-3" d="M140.34,294.15a.56.56,0,1,1-.56-.56A.56.56,0,0,1,140.34,294.15Z"/><path class="cls-3" d="M302.42,324.49a.56.56,0,1,1-.56-.56A.56.56,0,0,1,302.42,324.49Z"/><path class="cls-3" d="M236.66,277.73a.56.56,0,1,1-.56-.56A.56.56,0,0,1,236.66,277.73Z"/><path class="cls-3" d="M325.12,294.71a.56.56,0,1,1-.56-.56A.56.56,0,0,1,325.12,294.71Z"/><circle class="cls-3" cx="324.56" cy="310.86" r="0.56"/><path class="cls-3" d="M283.93,345.19a.56.56,0,1,1-.56-.56A.56.56,0,0,1,283.93,345.19Z"/><path class="cls-3" d="M257.87,248.38a.56.56,0,1,1-.55-.56A.56.56,0,0,1,257.87,248.38Z"/><path class="cls-3" d="M270.41,246a.56.56,0,1,1-.56-.55A.56.56,0,0,1,270.41,246Z"/><path class="cls-3" d="M207.48,154.73a.56.56,0,1,1-.56-.56A.56.56,0,0,1,207.48,154.73Z"/><path class="cls-3" d="M206.37,197.68a.56.56,0,1,1-.56-.56A.56.56,0,0,1,206.37,197.68Z"/><path class="cls-3" d="M318.1,238.48a.56.56,0,1,1-.56-.56A.56.56,0,0,1,318.1,238.48Z"/><path class="cls-3" d="M321,199.13a.56.56,0,1,1-.56-.56A.56.56,0,0,1,321,199.13Z"/><circle class="cls-3" cx="272.68" cy="29.66" r="0.56"/><path class="cls-3" d="M223.83,13a.56.56,0,0,1-1.12,0,.56.56,0,0,1,1.12,0Z"/><path class="cls-3" d="M244.62,94.41a.56.56,0,1,1-.55-.56A.56.56,0,0,1,244.62,94.41Z"/><path class="cls-3" d="M260.75,51.84a.56.56,0,1,1-.56-.56A.56.56,0,0,1,260.75,51.84Z"/><path class="cls-3" d="M43.87,74.71a.56.56,0,1,1-.56-.56A.56.56,0,0,1,43.87,74.71Z"/><path class="cls-3" d="M36,21.47a.56.56,0,1,1-.56-.56A.56.56,0,0,1,36,21.47Z"/><path class="cls-10" d="M166.16,80.4a.56.56,0,1,1-.55-.56A.56.56,0,0,1,166.16,80.4Z"/><path class="cls-10" d="M187,110.51a.56.56,0,1,1-.56-.56A.56.56,0,0,1,187,110.51Z"/><path class="cls-10" d="M140.34,91.24a.56.56,0,1,1-.56-.56A.56.56,0,0,1,140.34,91.24Z"/><path class="cls-10" d="M89.59,56.54A.56.56,0,1,1,89,56,.56.56,0,0,1,89.59,56.54Z"/><path class="cls-10" d="M10.45,161.48a.56.56,0,1,1-.56-.56A.56.56,0,0,1,10.45,161.48Z"/><path class="cls-10" d="M18.69,98.32a.56.56,0,1,1-.56-.56A.56.56,0,0,1,18.69,98.32Z"/><path class="cls-10" d="M48.14,54.15a.56.56,0,1,1-.56-.56A.56.56,0,0,1,48.14,54.15Z"/><path class="cls-5" d="M33.32,66a.56.56,0,1,1-.55-.56A.56.56,0,0,1,33.32,66Z"/><path class="cls-5" d="M64.87,75.83a.56.56,0,1,1-.56-.56A.56.56,0,0,1,64.87,75.83Z"/><path class="cls-5" d="M18.69,25.17a.56.56,0,1,1-.56-.56A.56.56,0,0,1,18.69,25.17Z"/><path class="cls-5" d="M333.42,209.75a.56.56,0,1,1-.56-.55A.56.56,0,0,1,333.42,209.75Z"/><path class="cls-5" d="M307.72,99.09a.56.56,0,1,1-.56-.56A.56.56,0,0,1,307.72,99.09Z"/><path class="cls-5" d="M291.1,119.75a.56.56,0,1,1-.55-.55A.56.56,0,0,1,291.1,119.75Z"/><path class="cls-3" d="M321,120.31a.56.56,0,1,1-.56-.56A.56.56,0,0,1,321,120.31Z"/><path class="cls-5" d="M196,198.57a.56.56,0,1,1-.56-.56A.56.56,0,0,1,196,198.57Z"/><path class="cls-5" d="M261.31,275.5a.56.56,0,1,1-.56-.56A.56.56,0,0,1,261.31,275.5Z"/><path class="cls-5" d="M241.3,300.26a.56.56,0,1,1-.55-.56A.56.56,0,0,1,241.3,300.26Z"/><path class="cls-5" d="M244.47,266.22a.56.56,0,1,1-.56-.56A.56.56,0,0,1,244.47,266.22Z"/><path class="cls-5" d="M212.61,267.9a.56.56,0,1,1-.56-.56A.56.56,0,0,1,212.61,267.9Z"/><circle class="cls-5" cx="212.61" cy="229.69" r="0.56"/><path class="cls-5" d="M161.66,304.65a.56.56,0,1,1-.55-.56A.55.55,0,0,1,161.66,304.65Z"/><path class="cls-5" d="M318.66,266.78a.56.56,0,1,1-.56-.56A.56.56,0,0,1,318.66,266.78Z"/><path class="cls-5" d="M232.89,225.06a.56.56,0,1,1-.56-.55A.56.56,0,0,1,232.89,225.06Z"/><path class="cls-5" d="M125.61,153.87a.56.56,0,1,1-.56-.56A.56.56,0,0,1,125.61,153.87Z"/><path class="cls-5" d="M126.17,212.21a.56.56,0,1,1-.56-.56A.56.56,0,0,1,126.17,212.21Z"/><path class="cls-5" d="M149.48,251.29a.56.56,0,1,1-.56-.55A.56.56,0,0,1,149.48,251.29Z"/><path class="cls-5" d="M149.48,285.71a.56.56,0,1,1-.56-.56A.56.56,0,0,1,149.48,285.71Z"/><circle class="cls-5" cx="91.3" cy="239.04" r="0.56"/><path class="cls-5" d="M136.9,202.31a.56.56,0,1,1-.56-.55A.56.56,0,0,1,136.9,202.31Z"/><path class="cls-5" d="M159.66,187.61a.56.56,0,1,1-.56-.56A.56.56,0,0,1,159.66,187.61Z"/><path class="cls-5" d="M69.25,221.78a.56.56,0,1,1-.56-.56A.56.56,0,0,1,69.25,221.78Z"/><path class="cls-5" d="M240.19,113.66a.56.56,0,1,1-.56-.56A.56.56,0,0,1,240.19,113.66Z"/><path class="cls-5" d="M218.34,27a.56.56,0,1,1-.56-.55A.56.56,0,0,1,218.34,27Z"/><path class="cls-5" d="M235.26,168.92a.56.56,0,1,1-.56-.56A.56.56,0,0,1,235.26,168.92Z"/><path class="cls-2" d="M229.16,105.82a.56.56,0,1,1-.56-.56A.56.56,0,0,1,229.16,105.82Z"/><path class="cls-2" d="M318.1,40.14a.56.56,0,1,1-.56-.56A.56.56,0,0,1,318.1,40.14Z"/><path class="cls-2" d="M118.84,99.65a.56.56,0,1,1-.56-.56A.56.56,0,0,1,118.84,99.65Z"/><path class="cls-2" d="M25.22,11.5a.56.56,0,1,1-.56-.55A.56.56,0,0,1,25.22,11.5Z"/><path class="cls-2" d="M19.81,231.75a.56.56,0,1,1-.56-.55A.56.56,0,0,1,19.81,231.75Z"/><path class="cls-2" d="M256.81,183.26a.56.56,0,1,1-.56-.56A.56.56,0,0,1,256.81,183.26Z"/><path class="cls-2" d="M202.51,206a.56.56,0,1,1-.56-.56A.56.56,0,0,1,202.51,206Z"/><path class="cls-2" d="M152.51,311.42a.56.56,0,1,1-.56-.56A.56.56,0,0,1,152.51,311.42Z"/><circle class="cls-2" cx="124.5" cy="189.67" r="0.56"/><path class="cls-2" d="M180.26,29.1a.56.56,0,1,1-.56-.56A.56.56,0,0,1,180.26,29.1Z"/><path class="cls-5" d="M40.73,330.52a.56.56,0,1,1-.56-.56A.56.56,0,0,1,40.73,330.52Z"/><path class="cls-5" d="M48.91,295.47a.56.56,0,1,1-.56-.55A.56.56,0,0,1,48.91,295.47Z"/><path class="cls-6" d="M161.36,56.54S141.46,69.61,130.23,76,124.6,82.69,161.36,56.54Z"/><path class="cls-11" d="M79.64,310.86a5,5,0,0,1,.57,1.39,5.09,5.09,0,0,1-8.4,5,5.1,5.1,0,1,0,7.83-6.36Z"/><path class="cls-5" d="M76.49,318.43a5.1,5.1,0,0,0,3.72-6.18,5,5,0,0,0-.57-1.39,5.1,5.1,0,0,0-8.41,5,5,5,0,0,0,.58,1.38A5.05,5.05,0,0,0,76.49,318.43Z"/><path class="cls-6" d="M80.67,312.2h.07c1.12.06,1.89.31,2,.77.24,1-2.5,2.5-6.13,3.4s-6.77.84-7-.14c-.11-.46.44-1.05,1.44-1.63l0,0s0-.4.06-.76c0-.18.19-.79.19-.79l-.08.05c-3.56,1.35-5.87,3-5.58,4.13.39,1.57,5.41,1.67,11.21.23s10.2-3.88,9.81-5.45c-.29-1.15-3.13-1.51-6.89-1,0,0-.08,0-.07,0a6.49,6.49,0,0,1,.51.57A3.19,3.19,0,0,1,80.67,312.2Z"/></g><g id="Body_1"><rect class="cls-12" x="149.76" y="253.64" width="16.04" height="84.63"/><rect class="cls-13" x="149.76" y="253.64" width="5.86" height="84.63"/><rect class="cls-12" x="195.85" y="253.64" width="16.04" height="84.63"/><rect class="cls-13" x="195.85" y="253.64" width="8.02" height="84.63"/><rect class="cls-14" x="174.07" y="107.32" width="12.49" height="12.1"/><polygon class="cls-14" points="175.88 107.29 165.16 107.08 165.13 119.32 165.13 125.76 197.93 125.76 197.93 107.26 186.52 107.26 186.52 119.1 175.9 119.1 175.88 107.29"/><path class="cls-14" d="M162.6,125.76H127.45v76.45s105.58-.63,106.21,0,0-76.45,0-76.45H162.6Z"/><rect class="cls-14" x="139.12" y="191.47" width="82.54" height="22.42"/><rect class="cls-12" x="139.22" y="143.49" width="3.89" height="70.39"/><rect class="cls-12" x="216.22" y="143.49" width="5.45" height="70.4"/><rect class="cls-14" x="174.19" y="119.3" width="12.43" height="11.54"/><rect class="cls-14" x="174.19" y="138.17" width="12.43" height="11.54"/><rect class="cls-12" x="151.49" y="151.74" width="5.98" height="5.98"/><rect class="cls-12" x="200.1" y="151.74" width="5.98" height="5.98"/><rect class="cls-14" x="220.26" y="200.81" width="14.49" height="14.49"/><rect class="cls-14" x="125.26" y="200.81" width="14.49" height="14.49" transform="translate(265.01 416.1) rotate(180)"/></g><g id="Face_13"><rect class="cls-15" x="138.84" y="46.89" width="4.17" height="21.32"/><rect class="cls-16" x="141.66" y="42.45" width="7.46" height="28.51"/><rect class="cls-16" x="169.21" y="91.23" width="25.35" height="3.62"/><polygon class="cls-17" points="219.12 46.89 216.67 46.89 216.67 42.45 211.98 42.45 211.98 32.2 205.82 32.2 205.82 26.72 202.44 26.72 202.44 23.22 196.93 23.22 196.93 19.42 160.88 19.42 160.88 23.22 156.28 23.22 156.28 26.72 150.58 26.72 150.58 32.2 144.97 32.2 144.97 80.5 150.94 80.5 150.94 83.99 155.77 83.99 155.77 87.49 160.95 87.49 160.95 91.29 190.43 91.29 190.43 94.88 195.43 94.88 195.43 91.29 197.75 91.29 197.75 87.49 202.15 87.49 202.15 83.99 205.82 83.99 205.82 80.5 211.98 80.5 211.98 70.96 216.67 70.96 216.67 68.22 219.12 68.22 219.12 46.89"/><rect class="cls-16" x="150.58" y="29.32" width="5.77" height="2.93"/><rect class="cls-16" x="154.96" y="29.35" width="5.51" height="2.98"/><rect class="cls-16" x="156.13" y="26.58" width="4.34" height="2.77"/><rect class="cls-15" x="141.53" y="49.03" width="12.47" height="23.73"/><rect class="cls-16" x="150.94" y="74.2" width="6.94" height="9.79"/><rect class="cls-12" x="185.95" y="101.38" width="11.6" height="7.27"/><rect class="cls-13" x="186.17" y="81.72" width="11.53" height="20.21"/><rect class="cls-13" x="164.52" y="97.92" width="22.98" height="10.67"/><rect class="cls-12" x="153.28" y="64.56" width="34" height="37.63"/><polygon class="cls-17" points="170.11 54.48 169.6 54.48 151.22 54.48 151.22 65.18 169.6 65.18 170.11 65.18 188 65.18 188 54.48 170.11 54.48"/><rect class="cls-15" x="187.16" y="64.25" width="11.42" height="17.95"/><rect class="cls-15" x="165.51" y="93.79" width="4.35" height="7.88"/><rect class="cls-15" x="153.04" y="66.62" width="14.02" height="3.22"/><rect class="cls-16" x="162.31" y="72.1" width="4.28" height="2.21"/><rect class="cls-16" x="153.24" y="72.1" width="1.99" height="2.21"/><rect class="cls-13" x="155.52" y="75.36" width="6.35" height="17.68"/><rect class="cls-15" x="153.19" y="87.83" width="9.92" height="5.1"/><rect class="cls-15" x="159.73" y="91.38" width="5.81" height="3.86"/><rect class="cls-15" x="153.06" y="101.58" width="13.61" height="6.86"/><rect class="cls-12" x="186.67" y="71.54" width="6.65" height="16.63"/></g><g id="Face_12"><rect class="cls-14" x="184.42" y="99.76" width="13.29" height="8.3"/><rect class="cls-13" x="184.67" y="77.23" width="13.11" height="23.16"/><rect class="cls-13" x="159.62" y="95.68" width="25.04" height="12.22"/><rect class="cls-14" x="146.95" y="50.21" width="37.65" height="50.47"/><polygon class="cls-17" points="163.78 46.17 163.16 46.17 141.17 46.17 141.17 57.42 163.16 57.42 163.78 57.42 185.18 57.42 185.18 46.17 163.78 46.17"/><rect class="cls-17" x="184.62" y="56.71" width="13.12" height="26.84"/><rect class="cls-13" x="146.89" y="100.75" width="16.46" height="7.07"/><rect class="cls-13" x="150.43" y="68.6" width="5.64" height="19.97"/><rect class="cls-15" x="156.5" y="66.53" width="10.39" height="7.9"/><rect class="cls-15" x="159.3" y="70.64" width="4.12" height="3.78"/><rect class="cls-15" x="163.42" y="66.52" width="3.44" height="4.04"/><rect class="cls-18" x="158.08" y="68.73" width="7.69" height="2.92"/><rect class="cls-18" x="158.63" y="70.32" width="6.49" height="2.44"/><rect class="cls-18" x="158.63" y="68.02" width="6.49" height="2.44"/><rect class="cls-18" x="159.43" y="71.78" width="4.88" height="1.99"/><rect class="cls-18" x="159.43" y="67" width="4.88" height="1.99"/><rect class="cls-15" x="157.4" y="65.4" width="8.73" height="1.49"/><rect class="cls-15" x="157.4" y="74" width="8.73" height="1.49"/><rect class="cls-15" x="158.42" y="74.81" width="6.83" height="1.49"/><rect class="cls-15" x="158.42" y="64.59" width="6.83" height="1.49"/><rect class="cls-15" x="166.52" y="67.43" width="2.5" height="5.92"/><rect class="cls-17" x="146.94" y="66.53" width="2.42" height="7.9"/><rect class="cls-15" x="146.94" y="66.52" width="2.4" height="4.04"/><rect class="cls-15" x="146.94" y="65.48" width="1.71" height="1.11"/><rect class="cls-15" x="146.94" y="73.79" width="1.71" height="1.11"/><rect class="cls-18" x="146.94" y="68.43" width="1.96" height="2.92"/><rect class="cls-18" x="146.94" y="70.1" width="1.31" height="2.44"/><rect class="cls-18" x="146.94" y="67.13" width="1.31" height="2.44"/><rect class="cls-18" x="146.94" y="71.62" width="0.5" height="1.99"/><rect class="cls-18" x="146.94" y="65.99" width="0.5" height="1.99"/><rect class="cls-15" x="148.62" y="68.39" width="8.44" height="2.03"/></g><g id="Face_11"><rect class="cls-14" x="187.13" y="99.83" width="11.18" height="7.61"/><rect class="cls-13" x="187.36" y="79.17" width="10.9" height="21.25"/><rect class="cls-13" x="164.37" y="96.09" width="22.98" height="11.21"/><rect class="cls-14" x="152.79" y="54.38" width="36.17" height="46.31"/><polygon class="cls-15" points="166.93 44.43 166.3 44.43 143.47 44.43 143.47 54.24 166.3 54.24 166.93 54.24 189.13 54.24 189.13 44.43 166.93 44.43"/><polygon class="cls-15" points="167.19 40.97 166.71 40.97 149.3 40.97 149.3 52.64 166.71 52.64 167.19 52.64 184.12 52.64 184.12 40.97 167.19 40.97"/><polygon class="cls-15" points="165.27 37.1 164.96 37.1 153.84 37.1 153.84 45.8 164.96 45.8 165.27 45.8 176.09 45.8 176.09 37.1 165.27 37.1"/><rect class="cls-17" x="188.57" y="56.06" width="9.68" height="23.62"/><rect class="cls-13" x="152.7" y="100.74" width="15.1" height="6.49"/><rect class="cls-15" x="140.06" y="48.25" width="54.18" height="8.11"/><rect class="cls-14" x="184.18" y="71.69" width="7.96" height="12.09"/><rect class="cls-17" x="152.6" y="89.86" width="14.63" height="4.37"/><rect class="cls-17" x="167.23" y="93.93" width="3.8" height="9.79"/><rect class="cls-17" x="152.7" y="103.64" width="14.69" height="3.59"/><rect class="cls-13" x="154.8" y="72.68" width="6.79" height="18.32"/><rect class="cls-13" x="155.47" y="72.08" width="5.39" height="1.13"/><rect class="cls-13" x="156.93" y="71.45" width="2.38" height="1.13"/><rect class="cls-17" x="152.01" y="62.31" width="3.57" height="2.94"/><rect class="cls-17" x="160.86" y="62.31" width="6.47" height="2.94"/><rect class="cls-15" x="162.34" y="67.43" width="4.5" height="4.5"/><rect class="cls-15" x="152.8" y="67.43" width="2.09" height="4.5"/></g><g id="Face_10"><rect class="cls-14" x="185.53" y="100.16" width="12.31" height="7.68"/><rect class="cls-13" x="185.76" y="79.3" width="12.14" height="21.44"/><rect class="cls-13" x="162.56" y="96.38" width="23.07" height="11.32"/><rect class="cls-14" x="150.87" y="60.83" width="34.86" height="40.19"/><polygon class="cls-17" points="165.87 50.54 165.3 50.54 144.78 50.54 144.78 60.96 165.3 60.96 165.87 60.96 185.84 60.96 185.84 50.54 165.87 50.54"/><rect class="cls-17" x="185.71" y="54.39" width="12.15" height="25.43"/><rect class="cls-17" x="146.01" y="84.85" width="23.39" height="6.35"/><rect class="cls-17" x="148.52" y="91.2" width="13.97" height="5.36"/><rect class="cls-17" x="150.78" y="101.07" width="11.72" height="6.57"/><rect class="cls-17" x="162.5" y="91.21" width="4.62" height="9.97"/><rect class="cls-17" x="153.53" y="101.11" width="7.07" height="10.13"/><rect class="cls-12" x="153.24" y="72.56" width="6.74" height="18.49"/><rect class="cls-17" x="149.53" y="62.76" width="15.96" height="4.69"/><rect class="cls-17" x="160.45" y="67.93" width="4.54" height="4.54"/><rect class="cls-17" x="150.82" y="67.93" width="2.11" height="4.54"/></g><g id="Face_9"><rect class="cls-12" x="184.64" y="99.45" width="13.33" height="8.32"/><rect class="cls-13" x="184.94" y="76.94" width="13.2" height="23.14"/><rect class="cls-13" x="159.9" y="95.37" width="24.7" height="11.92"/><rect class="cls-12" x="147.29" y="57.01" width="37.62" height="43.37"/><polygon class="cls-17" points="165.56 45.09 165.06 45.09 147.19 45.09 147.19 57.19 165.06 57.19 165.56 57.19 182.95 57.19 182.95 45.09 165.56 45.09"/><rect class="cls-17" x="184.56" y="45.38" width="13.44" height="32.12"/><rect class="cls-17" x="159.83" y="89.79" width="4.98" height="10.65"/><rect class="cls-12" x="174.58" y="45.22" width="10.08" height="42.06"/><rect class="cls-17" x="152.64" y="35.25" width="32.1" height="10.22"/><rect class="cls-17" x="147.57" y="100.31" width="12.3" height="6.85"/><rect class="cls-13" x="149.97" y="69.66" width="7.27" height="19.95"/><rect class="cls-17" x="145.97" y="59.09" width="17.22" height="5.06"/><rect class="cls-17" x="157.75" y="64.67" width="4.9" height="4.9"/><rect class="cls-17" x="147.36" y="64.67" width="2.27" height="4.9"/><rect class="cls-17" x="144.76" y="82.93" width="15.08" height="6.86"/></g><g id="Face_8"><rect class="cls-14" x="186.24" y="100.01" width="11.59" height="7.23"/><rect class="cls-13" x="186.46" y="80.37" width="11.43" height="20.19"/><rect class="cls-13" x="164.61" y="96.45" width="21.83" height="10.66"/><rect class="cls-14" x="153.61" y="56.82" width="32.82" height="44"/><polygon class="cls-17" points="168.03 53.29 167.59 53.29 151.7 53.29 151.7 63.1 167.59 63.1 168.03 63.1 183.5 63.1 183.5 53.29 168.03 53.29"/><rect class="cls-17" x="186.41" y="56.92" width="11.44" height="23.94"/><rect class="cls-13" x="153.52" y="100.87" width="14.35" height="6.17"/><rect class="cls-12" x="155.73" y="74.24" width="6.45" height="18.33"/><rect class="cls-17" x="152.34" y="65.44" width="18.82" height="3.77"/><rect class="cls-17" x="162.24" y="71.04" width="8.71" height="6.89"/><rect class="cls-19" x="164.59" y="74.63" width="3.45" height="3.3"/><rect class="cls-15" x="168.04" y="71.03" width="2.88" height="3.52"/><rect class="cls-17" x="152.24" y="71.04" width="3.49" height="6.89"/><rect class="cls-19" x="152.24" y="74.63" width="0.58" height="3.3"/><rect class="cls-15" x="152.82" y="71.03" width="2.88" height="3.52"/><rect class="cls-15" x="155.03" y="71.03" width="7.36" height="3.39"/><rect class="cls-17" x="153.55" y="89.22" width="17.06" height="3.39"/><rect class="cls-17" x="153.61" y="100.82" width="11.45" height="6.18"/></g><g id="Face_7"><rect class="cls-14" x="184.92" y="99.75" width="13.3" height="8.3"/><rect class="cls-13" x="185.17" y="77.21" width="13.12" height="23.18"/><rect class="cls-13" x="160.09" y="95.67" width="25.06" height="12.23"/><rect class="cls-14" x="147.46" y="50.17" width="37.68" height="50.51"/><polygon class="cls-17" points="167.98 46.12 167.42 46.12 147.48 46.12 147.48 57.38 167.42 57.38 167.98 57.38 187.37 57.38 187.37 46.12 167.98 46.12"/><rect class="cls-17" x="185.12" y="50.28" width="13.13" height="27.48"/><rect class="cls-13" x="147.36" y="100.74" width="16.47" height="7.08"/><rect class="cls-12" x="149.9" y="69.92" width="7.4" height="19.99"/><rect class="cls-17" x="146.01" y="60.07" width="21.61" height="4.33"/><rect class="cls-17" x="157.37" y="66.5" width="9.99" height="7.91"/><rect class="cls-19" x="160.07" y="70.62" width="3.96" height="3.79"/><rect class="cls-15" x="164.03" y="66.49" width="3.31" height="4.05"/><rect class="cls-17" x="145.89" y="66.5" width="4" height="7.91"/><rect class="cls-19" x="145.89" y="70.62" width="0.67" height="3.79"/><rect class="cls-15" x="146.56" y="66.49" width="3.31" height="4.05"/><rect class="cls-15" x="149.09" y="66.49" width="8.45" height="3.9"/></g><g id="Face_6"><rect class="cls-14" x="186.02" y="100.16" width="12.22" height="7.63"/><rect class="cls-13" x="186.25" y="79.45" width="12.06" height="21.29"/><rect class="cls-13" x="163.21" y="96.41" width="23.02" height="11.24"/><rect class="cls-14" x="151.61" y="54.61" width="34.61" height="46.4"/><polygon class="cls-20" points="172.9 46.34 172.28 46.34 149.84 46.34 149.84 57.27 172.28 57.27 172.9 57.27 194.73 57.27 194.73 46.34 172.9 46.34"/><rect class="cls-20" x="186.2" y="54.71" width="12.07" height="25.25"/><rect class="cls-13" x="151.52" y="101.07" width="15.13" height="6.5"/><rect class="cls-12" x="154.94" y="74.03" width="6.8" height="18.29"/><rect class="cls-20" x="150.28" y="63.71" width="19.85" height="3.98"/><rect class="cls-20" x="151.55" y="88.78" width="17.99" height="3.58"/><rect class="cls-20" x="151.61" y="101.01" width="12.08" height="6.52"/><rect class="cls-21" x="165.36" y="69.41" width="4.51" height="4.51"/><rect class="cls-21" x="151.67" y="69.41" width="2.15" height="4.51"/></g><g id="Face_5"><rect class="cls-17" x="150.13" y="78.09" width="11.46" height="22.32"/><rect class="cls-14" x="185.31" y="100.04" width="13.16" height="8.21"/><rect class="cls-13" x="185.56" y="77.74" width="12.98" height="22.92"/><rect class="cls-13" x="160.76" y="95.99" width="24.66" height="12.1"/><rect class="cls-14" x="148.26" y="57.99" width="37.27" height="42.96"/><polygon class="cls-20" points="167.04 45.48 166.36 45.48 141.85 45.48 141.85 58.13 166.36 58.13 167.04 58.13 190.88 58.13 190.88 45.48 167.04 45.48"/><polygon class="cls-20" points="163.46 39.17 162.78 39.17 138.06 39.17 138.06 49.95 162.78 49.95 163.46 49.95 187.51 49.95 187.51 39.17 163.46 39.17"/><polygon class="cls-20" points="138.99 32.95 138.83 32.95 133.14 32.95 133.14 43 138.83 43 138.99 43 144.52 43 144.52 32.95 138.99 32.95"/><rect class="cls-20" x="185.5" y="51.11" width="12.89" height="27.18"/><rect class="cls-20" x="146.53" y="90.46" width="14.16" height="5.73"/><rect class="cls-20" x="148.16" y="101.01" width="12.53" height="7.02"/><rect class="cls-20" x="160.69" y="90.47" width="4.93" height="10.66"/><rect class="cls-12" x="150.8" y="70.53" width="7.2" height="17.68"/><rect class="cls-20" x="147.35" y="60.06" width="3.86" height="3.18"/><rect class="cls-20" x="156.9" y="60.06" width="6.98" height="3.18"/><rect class="cls-22" x="158.5" y="65.59" width="4.86" height="4.86"/><rect class="cls-22" x="148.21" y="65.59" width="2.25" height="4.86"/></g><g id="Face_4"><polygon class="cls-17" points="169.26 47.66 168.74 47.66 149.98 47.66 149.98 57.8 168.74 57.8 169.26 57.8 187.52 57.8 187.52 47.66 169.26 47.66"/><polygon class="cls-17" points="169.31 43.89 168.87 43.89 152.9 43.89 152.9 53.55 168.87 53.55 169.31 53.55 184.85 53.55 184.85 43.89 169.31 43.89"/><rect class="cls-14" x="185.8" y="100.1" width="12.72" height="7.94"/><rect class="cls-13" x="186.04" y="78.54" width="12.55" height="22.16"/><rect class="cls-13" x="162.06" y="96.2" width="23.97" height="11.7"/><rect class="cls-14" x="149.98" y="57.8" width="37.73" height="43.19"/><polygon class="cls-14" points="168.86 53.86 168.38 53.86 151.07 53.86 151.07 64.12 168.38 64.12 168.86 64.12 185.7 64.12 185.7 53.86 168.86 53.86"/><polygon class="cls-14" points="169.98 51.43 169.6 51.43 155.93 51.43 155.93 59.99 169.6 59.99 169.98 59.99 183.27 59.99 183.27 51.43 169.98 51.43"/><polygon class="cls-14" points="178.09 48.15 177.98 48.15 174.16 48.15 174.16 55.25 177.98 55.25 178.09 55.25 181.81 55.25 181.81 48.15 178.09 48.15"/><polygon class="cls-14" points="169.27 49.48 169.05 49.48 161.16 49.48 161.16 56.83 169.05 56.83 169.27 56.83 176.95 56.83 176.95 49.48 169.27 49.48"/><rect class="cls-17" x="187.54" y="52.88" width="11.06" height="26.2"/><rect class="cls-13" x="149.88" y="101.05" width="15.75" height="6.77"/><rect class="cls-14" x="182.72" y="70.74" width="8.31" height="12.61"/><rect class="cls-17" x="149.78" y="89.7" width="15.26" height="4.56"/><rect class="cls-17" x="165.04" y="93.95" width="3.97" height="10.21"/><rect class="cls-17" x="149.88" y="104.07" width="15.33" height="3.75"/><rect class="cls-13" x="152.07" y="71.78" width="7.08" height="19.12"/><rect class="cls-15" x="158.98" y="68.24" width="9.94" height="7.56"/><rect class="cls-15" x="161.67" y="72.18" width="3.94" height="3.62"/><rect class="cls-15" x="165.61" y="68.23" width="3.29" height="3.87"/><rect class="cls-18" x="160.49" y="70.35" width="7.36" height="2.8"/><rect class="cls-18" x="161.03" y="71.87" width="6.21" height="2.34"/><rect class="cls-18" x="161.03" y="69.67" width="6.21" height="2.34"/><rect class="cls-18" x="161.79" y="73.26" width="4.67" height="1.9"/><rect class="cls-18" x="161.79" y="68.69" width="4.67" height="1.9"/><rect class="cls-15" x="159.85" y="67.16" width="8.35" height="1.43"/><rect class="cls-15" x="159.85" y="75.39" width="8.35" height="1.43"/><rect class="cls-15" x="160.82" y="76.17" width="6.54" height="1.43"/><rect class="cls-15" x="160.82" y="66.38" width="6.54" height="1.43"/><rect class="cls-15" x="168.81" y="69.06" width="1.87" height="5.66"/><rect class="cls-17" x="149.84" y="68.24" width="2.32" height="7.56"/><rect class="cls-15" x="149.84" y="68.23" width="2.3" height="3.87"/><rect class="cls-15" x="149.84" y="67.24" width="1.64" height="1.06"/><rect class="cls-15" x="149.84" y="75.19" width="1.64" height="1.06"/><rect class="cls-18" x="149.84" y="70.06" width="1.87" height="2.8"/><rect class="cls-18" x="149.84" y="71.65" width="1.25" height="2.34"/><rect class="cls-18" x="149.84" y="68.81" width="1.25" height="2.34"/><rect class="cls-18" x="149.84" y="73.11" width="0.48" height="1.9"/><rect class="cls-18" x="149.84" y="67.72" width="0.48" height="1.9"/><rect class="cls-15" x="151.44" y="70.02" width="8.08" height="1.94"/><rect class="cls-15" x="152.77" y="69.53" width="5.63" height="1.17"/><rect class="cls-13" x="152.77" y="71.15" width="5.63" height="1.17"/><rect class="cls-15" x="154.3" y="68.88" width="2.48" height="1.17"/><rect class="cls-13" x="154.3" y="70.5" width="2.48" height="1.17"/></g><g id="Face_3"><rect class="cls-12" x="184.39" y="77.12" width="13.15" height="23.04"/><rect class="cls-14" x="184.82" y="99.84" width="13.08" height="7.47"/><rect class="cls-12" x="160.13" y="94.96" width="24.6" height="12.16"/><rect class="cls-12" x="147.7" y="94.96" width="24.6" height="12.16"/><rect class="cls-14" x="147.57" y="56.76" width="37.47" height="43.19"/><polygon class="cls-17" points="165.98 44.89 165.46 44.89 146.65 44.89 146.65 57.09 165.46 57.09 165.98 57.09 184.79 57.09 184.79 44.89 165.98 44.89"/><rect class="cls-17" x="184.69" y="50.1" width="12.9" height="27.07"/><rect class="cls-12" x="150.33" y="69.36" width="7.24" height="19.87"/><rect class="cls-17" x="146.34" y="58.84" width="17.15" height="3.79"/><rect class="cls-17" x="158.08" y="64.39" width="4.88" height="4.88"/><rect class="cls-17" x="147.73" y="64.39" width="2.26" height="4.88"/></g><g id="Face_2"><rect class="cls-23" x="138.26" y="46.68" width="4.25" height="21.76"/><rect class="cls-23" x="141.13" y="42.14" width="7.61" height="29.09"/><rect class="cls-23" x="169.24" y="91.92" width="25.86" height="3.7"/><polygon class="cls-24" points="220.16 46.68 217.66 46.68 217.66 42.14 212.87 42.14 212.87 31.69 206.6 31.69 206.6 26.1 203.14 26.1 203.14 22.53 197.52 22.53 197.52 18.66 160.74 18.66 160.74 22.53 156.05 22.53 156.05 26.1 150.24 26.1 150.24 31.69 144.51 31.69 144.51 80.96 150.6 80.96 150.6 84.53 155.53 84.53 155.53 88.1 160.81 88.1 160.81 91.98 190.89 91.98 190.89 95.64 195.99 95.64 195.99 91.98 198.36 91.98 198.36 88.1 202.84 88.1 202.84 84.53 206.6 84.53 206.6 80.96 212.87 80.96 212.87 71.23 217.66 71.23 217.66 68.44 220.16 68.44 220.16 46.68"/><rect class="cls-23" x="150.24" y="28.75" width="5.89" height="2.99"/><rect class="cls-23" x="154.71" y="28.78" width="5.62" height="3.04"/><rect class="cls-23" x="155.9" y="25.96" width="4.43" height="2.82"/><rect class="cls-23" x="141.01" y="48.86" width="12.72" height="24.21"/><rect class="cls-23" x="150.6" y="74.54" width="7.09" height="9.99"/><rect class="cls-14" x="186.32" y="102.26" width="11.84" height="7.42"/><rect class="cls-13" x="186.54" y="82.21" width="11.76" height="20.62"/><rect class="cls-13" x="164.46" y="98.74" width="23.45" height="10.88"/><rect class="cls-14" x="152.99" y="64.7" width="34.69" height="38.39"/><polygon class="cls-24" points="170.16 54.42 169.64 54.42 150.88 54.42 150.88 65.34 169.64 65.34 170.16 65.34 188.41 65.34 188.41 54.42 170.16 54.42"/><rect class="cls-24" x="187.56" y="64.39" width="11.65" height="18.31"/><rect class="cls-24" x="165.47" y="94.52" width="4.44" height="8.04"/><rect class="cls-13" x="154.22" y="74.06" width="6.48" height="18.03"/><rect class="cls-24" x="152.89" y="88.45" width="10.12" height="5.21"/><rect class="cls-24" x="159.57" y="92.07" width="5.93" height="3.94"/><rect class="cls-24" x="152.77" y="102.47" width="13.88" height="7"/><rect class="cls-14" x="187.05" y="71.82" width="6.78" height="16.97"/><rect class="cls-17" x="161.67" y="72.52" width="10.61" height="8.4"/><rect class="cls-19" x="164.54" y="76.9" width="4.21" height="4.02"/><rect class="cls-15" x="168.75" y="72.52" width="3.51" height="4.29"/><rect class="cls-17" x="149.49" y="72.52" width="4.25" height="8.4"/><rect class="cls-19" x="149.49" y="76.9" width="0.71" height="4.02"/><rect class="cls-15" x="150.2" y="72.52" width="3.51" height="4.29"/><rect class="cls-15" x="152.88" y="72.52" width="8.97" height="4.14"/></g><g id="Face_1"><rect class="cls-14" x="185.73" y="100.06" width="12.2" height="7.74"/><rect class="cls-12" x="186.75" y="79.13" width="11.18" height="21.95"/><rect class="cls-12" x="162.87" y="96.39" width="24.47" height="11.16"/><rect class="cls-14" x="150.9" y="60.86" width="36.21" height="40.07"/><polygon class="cls-15" points="169.89 52.45 169.38 52.45 150.9 52.45 150.9 61.52 169.38 61.52 169.89 61.52 187.87 61.52 187.87 52.45 169.89 52.45"/><rect class="cls-15" x="187.13" y="60.53" width="10.8" height="19.12"/><rect class="cls-15" x="150.65" y="64.01" width="14.93" height="2.67"/><rect class="cls-16" x="160.52" y="68.4" width="4.56" height="3.82"/><rect class="cls-16" x="150.85" y="68.4" width="2.11" height="3.82"/><rect class="cls-12" x="153.28" y="72.36" width="6.76" height="18.82"/><rect class="cls-12" x="150.81" y="100.97" width="14.34" height="6.67"/><rect class="cls-14" x="186.45" y="68.29" width="7.08" height="17.71"/></g><g id="Shoes_3"><rect class="cls-25" x="131.58" y="333.25" width="39.6" height="11.24"/><rect class="cls-25" x="144.57" y="301.67" width="26.51" height="37.11"/><rect class="cls-26" x="144.57" y="301.67" width="10.67" height="31.92"/><rect class="cls-26" x="131.58" y="333.25" width="28.36" height="11.2"/><rect class="cls-25" x="192.9" y="301.89" width="24.8" height="42.27"/><rect class="cls-26" x="192.9" y="301.89" width="14.35" height="42.49"/><rect class="cls-26" x="193.1" y="333.25" width="35.03" height="11.24"/></g><g id="Shoes_2"><g id="_Group_" data-name="&lt;Group&gt;"><rect class="cls-18" x="133.53" y="332.44" width="32.27" height="7.61"/><rect class="cls-18" x="195.85" y="332.38" width="32.28" height="6.82"/><polygon class="cls-27" points="133.53 337.66 133.53 345.28 158.23 345.28 158.23 340.32 160.75 340.32 160.75 345.28 165.81 345.28 165.81 337.66 133.53 337.66"/><polygon class="cls-27" points="195.85 337.63 195.85 345.28 200.8 345.28 200.8 339.7 203.09 339.7 203.09 345.28 228.13 345.28 228.13 337.63 195.85 337.63"/></g></g><g id="Shoes_1"><rect class="cls-17" x="133.53" y="332.44" width="32.31" height="12.05"/><rect class="cls-17" x="195.83" y="332.44" width="32.31" height="12.05"/></g><g id="Pants_9"><rect class="cls-28" x="142.98" y="213.28" width="72.17" height="23.55"/><path class="cls-28" d="M143.05,236.61V330.8h25.42c.07-.17.13-.34.19-.52s.62-.16.52.13c0,.13-.09.26-.14.39h.42V236.61Z"/><rect class="cls-28" x="194.84" y="236.61" width="20.18" height="94.19"/><rect class="cls-29" x="142.58" y="213.76" width="10.61" height="117.75"/><rect class="cls-29" x="190.48" y="236.61" width="14.55" height="94.2"/></g><g id="Pants_8"><rect class="cls-18" x="144.19" y="213.45" width="72.03" height="24.23"/><rect class="cls-18" x="144.26" y="237.45" width="26.36" height="92.74"/><rect class="cls-18" x="195.95" y="237.45" width="20.14" height="92.74"/><rect class="cls-30" x="143.79" y="213.4" width="10.59" height="116.8"/><rect class="cls-30" x="190.9" y="237.92" width="14.52" height="92.28"/></g><g id="Pants_7"><rect class="cls-31" x="144.33" y="213.89" width="71" height="23.63"/><rect class="cls-31" x="144.4" y="237.3" width="26.04" height="88.79"/><rect class="cls-31" x="195.46" y="237.3" width="19.89" height="88.79"/><rect class="cls-32" x="143.94" y="213.89" width="10.46" height="112.2"/><rect class="cls-32" x="191.16" y="237.3" width="14.34" height="88.79"/></g><g id="Pants_6"><rect class="cls-18" x="144.51" y="213.91" width="71.55" height="23.87"/><rect class="cls-18" x="144.58" y="237.57" width="26.23" height="92.44"/><rect class="cls-18" x="196.01" y="237.57" width="20.04" height="92.44"/><rect class="cls-30" x="144.12" y="213.98" width="10.53" height="116.03"/><rect class="cls-30" x="190.99" y="237.61" width="14.45" height="92.4"/><rect class="cls-25" x="143.82" y="266.89" width="26.99" height="4.42"/><rect class="cls-25" x="190.82" y="266.89" width="25.35" height="4.42"/><rect class="cls-25" x="144.05" y="232.56" width="5.35" height="2.52"/><rect class="cls-25" x="149.4" y="213.92" width="3.03" height="18.64"/><rect class="cls-25" x="210.68" y="232.56" width="5.35" height="2.52" transform="translate(426.71 467.65) rotate(180)"/><rect class="cls-25" x="207.66" y="213.79" width="3.03" height="18.78" transform="translate(418.34 446.35) rotate(180)"/></g><g id="Pants_5"><rect class="cls-30" x="145.28" y="213.54" width="70.37" height="23.14"/><path class="cls-30" d="M145.34,236.47V329h24.84c.06-.16.13-.33.18-.5s.61-.16.52.12-.1.26-.14.38h.41V236.47Z"/><rect class="cls-30" x="195.94" y="236.47" width="19.71" height="92.56"/><rect class="cls-33" x="144.89" y="213.44" width="10.36" height="116.29"/><rect class="cls-33" x="191.69" y="236.68" width="14.22" height="92.36"/><rect class="cls-34" x="211.89" y="213.52" width="2.52" height="115.52"/><rect class="cls-35" x="148.02" y="213.52" width="2.52" height="115.52"/></g><g id="Pants_4"><rect class="cls-19" x="143" y="212.42" width="74.42" height="24.76"/><rect class="cls-36" x="143" y="212.42" width="74.42" height="11.81"/><rect class="cls-19" x="143.07" y="236.96" width="27.29" height="93.05"/><rect class="cls-19" x="196.58" y="236.96" width="20.85" height="93.05"/><rect class="cls-15" x="142.59" y="212.42" width="10.96" height="117.59"/><rect class="cls-15" x="192.08" y="236.96" width="15.03" height="93.05"/></g><g id="Pants_3"><rect class="cls-19" x="145.09" y="213.7" width="70.78" height="23.09"/><rect class="cls-19" x="145.16" y="236.58" width="25.9" height="88.76"/><rect class="cls-19" x="195.95" y="236.58" width="19.79" height="88.76"/><rect class="cls-15" x="144.7" y="214.17" width="10.4" height="111.16"/><rect class="cls-15" x="191.68" y="236.58" width="14.27" height="88.76"/></g><g id="Pants_2"><rect class="cls-19" x="144.7" y="213.36" width="71.36" height="23.68"/><rect class="cls-19" x="196.12" y="236.83" width="19.81" height="92.48"/><polygon class="cls-19" points="173.99 318.11 173.99 311.67 172.27 311.67 172.27 305.3 170.73 305.3 170.73 236.83 144.8 236.83 144.8 299.09 144.61 299.09 144.61 305.3 142.56 305.3 142.56 311.67 139.79 311.67 139.79 318.11 136.81 318.11 136.81 329.57 178.72 329.57 178.72 318.11 173.99 318.11"/><polygon class="cls-15" points="144.61 299.09 144.61 305.3 142.56 305.3 142.56 311.67 139.79 311.67 139.79 318.11 136.81 318.11 136.81 329.57 155.3 329.57 155.3 323.13 155.3 318.11 155.3 316.76 155.3 311.67 155.3 310.55 155.3 305.3 155.3 299.09 144.61 299.09"/><polygon class="cls-19" points="189.02 320.04 189.02 314.68 190.6 314.68 190.6 309.38 192.01 309.38 192.01 252.41 215.84 252.41 215.84 304.21 216.01 304.21 216.01 309.38 217.89 309.38 217.89 314.68 220.44 314.68 220.44 320.04 223.18 320.04 223.18 329.57 184.68 329.57 184.68 320.04 189.02 320.04"/><polygon class="cls-15" points="202.16 311.01 195.91 311.01 195.91 314.76 193.02 314.76 193.02 318.61 189.09 318.61 189.09 322.5 184.87 322.5 184.87 329.42 202.16 329.42 202.16 311.01"/><rect class="cls-15" x="144.8" y="213.38" width="10.42" height="116.63"/><rect class="cls-15" x="191.84" y="236.83" width="10.49" height="92.5"/></g><g id="Pants_1"><polygon class="cls-34" points="144.92 213.71 144.92 237.2 144.92 237.42 144.92 261.76 170.28 261.76 170.28 237.42 195.83 237.42 195.83 261.76 215.66 261.76 215.66 237.42 215.66 237.2 215.66 213.71 144.92 213.71"/><rect class="cls-29" x="144.92" y="213.7" width="8.97" height="48.06"/><rect class="cls-29" x="191.44" y="237.2" width="14.65" height="24.57"/></g><g id="Shirt_13"><path class="cls-34" d="M162.6,125.77H127.45v75.7s105.56-.62,106.19,0,0-75.7,0-75.7h-71Z"/><rect class="cls-34" x="150.39" y="125.8" width="58.78" height="75.36"/><rect class="cls-34" x="173.71" y="119.37" width="12.43" height="11.43"/><polygon class="cls-34" points="173.92 107.86 162.39 107.66 162.36 119.52 162.36 125.77 197.63 125.77 197.63 107.84 185.36 107.84 185.36 119.31 173.94 119.31 173.92 107.86"/><rect class="cls-34" x="138.65" y="197.21" width="82.53" height="29.37"/><rect class="cls-28" x="138.65" y="143.33" width="11.64" height="83.22"/><rect class="cls-28" x="209.27" y="143.33" width="11.64" height="83.22"/><rect class="cls-37" x="138.65" y="156.75" width="82.21" height="11.42"/><rect class="cls-37" x="138.65" y="175.44" width="82.21" height="11.42"/><rect class="cls-38" x="150.45" y="156.75" width="58.86" height="11.42"/><rect class="cls-38" x="150.45" y="175.44" width="58.86" height="11.42"/></g><g id="Shirt_12"><polygon class="cls-18" points="174.03 107.07 162.51 106.86 162.47 119.29 162.47 125.84 197.72 125.84 197.72 107.04 185.46 107.04 185.46 119.07 174.05 119.07 174.03 107.07"/><path class="cls-18" d="M162.48,125.84H127.35v76.38s105.5-.63,106.13,0,0-76.38,0-76.38h-71Z"/><rect class="cls-30" x="174.05" y="125.87" width="12.59" height="76.04"/><rect class="cls-18" x="139.02" y="202.06" width="82.48" height="11.01"/><rect class="cls-30" x="139.02" y="143.55" width="11.63" height="69.75"/><rect class="cls-30" x="209.59" y="143.55" width="11.63" height="69.75"/><rect class="cls-18" x="171.42" y="119.38" width="16.49" height="11.53"/><rect class="cls-30" x="174.05" y="138.24" width="12.42" height="11.53"/><rect class="cls-30" x="174.05" y="157.1" width="12.42" height="11.53"/><rect class="cls-30" x="174.05" y="175.96" width="12.42" height="11.53"/><rect class="cls-39" x="169.04" y="140.3" width="8.8" height="8.8"/><rect class="cls-39" x="169.04" y="159.16" width="8.8" height="8.8"/><rect class="cls-39" x="169.04" y="178.02" width="8.8" height="8.8"/></g><g id="Shirt_11"><rect class="cls-18" x="151.77" y="157.67" width="59.87" height="11.93"/><rect class="cls-18" x="151.77" y="177.18" width="59.87" height="11.93"/><rect class="cls-19" x="139.73" y="149.32" width="24.36" height="59.51"/><rect class="cls-19" x="143.21" y="208.45" width="36.88" height="5.26"/><rect class="cls-19" x="183.6" y="208.45" width="36.91" height="5.26"/><rect class="cls-40" x="143.21" y="208.66" width="11.44" height="5.04"/><rect class="cls-40" x="209.12" y="208.66" width="11.44" height="5.04"/><rect class="cls-19" x="164.05" y="134.91" width="7.74" height="9.73"/><rect class="cls-19" x="191.52" y="135.41" width="9.2" height="9.9"/><rect class="cls-19" x="199.73" y="125.17" width="23.41" height="10.38"/><rect class="cls-19" x="148.29" y="134.92" width="15.79" height="73.98"/><rect class="cls-19" x="199.4" y="135.48" width="15.92" height="73.42"/><rect class="cls-19" x="199.56" y="149.32" width="24.02" height="59.51"/><polygon class="cls-19" points="201.34 208.82 201.34 143.63 188.96 143.63 188.96 149.11 186.38 149.11 186.38 156.73 177.32 156.73 177.32 149.11 174.38 149.11 174.38 143.63 163.88 143.63 163.88 208.82 201.34 208.82"/><rect class="cls-41" x="180.2" y="156.83" width="3.36" height="52.05"/><rect class="cls-19" x="139.12" y="125.17" width="24.72" height="10.21"/><rect class="cls-40" x="139.7" y="143.66" width="8.63" height="65.08"/><rect class="cls-40" x="215.25" y="143.66" width="8.53" height="65.17"/><rect class="cls-40" x="155.37" y="176.71" width="21" height="21.71"/><rect class="cls-40" x="187.12" y="176.71" width="21" height="21.71"/><rect class="cls-42" x="155.37" y="180.13" width="21" height="18.29"/><rect class="cls-42" x="187.12" y="180.13" width="21" height="18.29"/></g><g id="Shirt_10"><polygon class="cls-43" points="221.47 148.83 213.43 148.83 213.43 134.21 221.05 134.21 221.05 123.19 198.25 123.19 198.25 134.07 190.26 134.07 190.26 142.79 187.76 142.79 187.76 148.61 185.25 148.61 185.25 156.7 176.43 156.7 176.43 148.61 173.56 148.61 173.56 142.79 171.04 142.79 171.04 133.53 163.5 133.53 163.5 133.55 163.3 133.55 163.3 123.19 139.22 123.19 139.22 134.03 148.15 134.03 148.15 148.83 139.81 148.83 139.81 212.01 143.2 212.01 143.2 217.19 179.12 217.19 179.12 212.01 182.54 212.01 182.54 217.19 218.49 217.19 218.49 212.01 221.47 212.01 221.47 148.83"/><polygon class="cls-44" points="148.18 142.82 139.78 142.82 139.78 211.92 143.2 211.92 143.2 217.19 154.34 217.19 154.34 211.83 148.18 211.83 148.18 142.82"/><polygon class="cls-44" points="221.67 142.82 213.36 142.82 213.36 211.83 207.39 211.83 207.39 217.19 218.53 217.19 218.53 212.01 221.67 212.01 221.67 142.82"/><polygon class="cls-18" points="189.95 181.11 182.54 181.11 139.74 181.11 139.74 188.87 182.54 188.87 189.95 188.87 221.65 188.87 221.65 181.11 189.95 181.11"/></g><g id="Shirt_9"><path class="cls-34" d="M162.67,125.55H127.43V179.2s105.85-.44,106.48,0,0-53.65,0-53.65H162.67Z"/><rect class="cls-34" x="150.43" y="125.58" width="58.94" height="76.58"/><rect class="cls-34" x="138.66" y="198.15" width="82.75" height="29.84"/><rect class="cls-28" x="138.66" y="143.39" width="11.98" height="84.57"/><rect class="cls-28" x="209.01" y="143.39" width="12.39" height="84.57"/><rect class="cls-18" x="152.14" y="125.55" width="3.15" height="9.98"/><rect class="cls-18" x="155.21" y="135.48" width="3.15" height="5.14"/><rect class="cls-18" x="158.29" y="140.55" width="3.15" height="5.26"/><rect class="cls-18" x="161.4" y="145.77" width="3.15" height="82.31"/><rect class="cls-18" x="203.19" y="125.55" width="3.15" height="9.98" transform="translate(409.53 261.08) rotate(180)"/><rect class="cls-18" x="200.11" y="135.48" width="3.15" height="5.14" transform="translate(403.38 276.1) rotate(180)"/><rect class="cls-18" x="197.04" y="140.55" width="3.15" height="5.26" transform="translate(397.23 286.36) rotate(180)"/><rect class="cls-18" x="193.92" y="145.77" width="3.15" height="82.31" transform="translate(391 373.85) rotate(180)"/></g><g id="Shirt_8"><path class="cls-18" d="M162.57,124.86H127.3v76.68s105.92-.63,106.55,0,0-76.68,0-76.68H162.57Z"/><polygon class="cls-30" points="186.14 124.8 186.14 130.96 173.46 130.96 173.46 124.8 150.33 124.8 150.33 201.23 209.3 201.23 209.3 124.8 186.14 124.8"/><rect class="cls-19" x="143.04" y="213.06" width="72.74" height="24.21"/><rect class="cls-18" x="138.55" y="188.22" width="82.8" height="24.84"/><rect class="cls-30" x="138.3" y="142.65" width="11.92" height="70.39"/><rect class="cls-30" x="209.39" y="142.65" width="11.68" height="70.39"/><rect class="cls-19" x="173.65" y="132.79" width="12.47" height="48.18"/><rect class="cls-15" x="173.65" y="129.95" width="12.47" height="11.21"/><rect class="cls-18" x="160.65" y="134.03" width="7.63" height="9.44"/><rect class="cls-18" x="192.95" y="134.03" width="9.07" height="9.6"/><rect class="cls-18" x="197.85" y="124.97" width="23.09" height="13.58"/><rect class="cls-18" x="147.11" y="134.17" width="15.58" height="71.79"/><rect class="cls-18" x="197.52" y="134.71" width="15.71" height="71.25"/><rect class="cls-18" x="138.66" y="155.81" width="24.02" height="108.18"/><rect class="cls-18" x="197.68" y="155.81" width="23.69" height="108.18"/><rect class="cls-18" x="138.07" y="124.89" width="24.38" height="13.51"/><rect class="cls-30" x="138.39" y="152.16" width="8.69" height="111.84"/><rect class="cls-30" x="213.15" y="142.53" width="8.41" height="121.47"/><rect class="cls-19" x="175.31" y="179.33" width="9.15" height="3.67"/><rect class="cls-19" x="177.19" y="181.8" width="5.57" height="3.67"/><polygon class="cls-18" points="204.73 264 204.73 142.45 189.14 142.45 189.14 159.57 185.9 159.57 185.9 168.41 174.49 168.41 174.49 159.57 170.79 159.57 170.79 142.45 157.55 142.45 157.55 264 204.73 264"/><rect class="cls-30" x="192.87" y="146.2" width="17.04" height="4.5"/><rect class="cls-30" x="179.5" y="168.38" width="1.74" height="95.61"/></g><g id="Shirt_7"><path class="cls-18" d="M162.54,125.49H127.62v75.92s104.86-.63,105.49,0,0-75.92,0-75.92H162.54Z"/><rect class="cls-18" x="150.42" y="125.68" width="58.39" height="75.42"/><rect class="cls-18" x="138.75" y="188.22" width="81.97" height="24.59"/><rect class="cls-30" x="138.75" y="143.1" width="11.56" height="69.69"/><rect class="cls-30" x="208.9" y="143.1" width="11.56" height="69.69"/><rect class="cls-45" x="173.51" y="133.34" width="12.34" height="47.7"/><rect class="cls-46" x="173.51" y="130.53" width="12.34" height="11.1"/><rect class="cls-45" x="175.15" y="179.42" width="9.06" height="3.63"/><rect class="cls-45" x="177.01" y="181.86" width="5.51" height="3.63"/><polygon class="cls-30" points="160.73 125.49 160.73 133.24 164.19 133.24 164.19 137.35 166.75 137.35 166.75 140.88 169.3 140.88 169.3 144.29 173.52 144.29 173.52 140.88 173.52 137.62 173.52 137.35 173.52 133.24 173.52 132.93 173.52 128.01 173.52 125.49 160.73 125.49"/><polygon class="cls-30" points="197.66 125.49 185.84 125.49 185.84 137.62 185.86 137.62 185.86 140.88 185.86 144.29 190.09 144.29 190.09 140.88 192.63 140.88 192.63 137.62 197.66 137.62 197.66 125.49"/><rect class="cls-19" x="138.85" y="197.39" width="81.9" height="22.2"/><rect class="cls-19" x="163.01" y="134.91" width="7.56" height="9.35"/><rect class="cls-19" x="190.19" y="135.39" width="8.98" height="9.51"/><rect class="cls-19" x="147.97" y="134.92" width="15.42" height="71.08"/><polygon class="cls-19" points="198.2 125.55 198.2 135.46 197.88 135.46 197.88 206 198.2 206 198.2 206.02 220.75 206.02 220.75 125.55 198.2 125.55"/><polygon class="cls-19" points="199.78 205.92 199.78 143.28 187.69 143.28 187.69 148.55 185.17 148.55 185.17 155.87 176.32 155.87 176.32 148.55 172.52 148.55 172.52 143.28 163.19 143.28 163.19 205.92 199.78 205.92"/><rect class="cls-40" x="179.14" y="155.96" width="3.28" height="53.07"/><rect class="cls-19" x="139.02" y="125.55" width="24.14" height="80.3"/><rect class="cls-19" x="127.37" y="125.55" width="11.65" height="76.04"/><rect class="cls-19" x="220.16" y="125.55" width="13.75" height="76.04"/><rect class="cls-40" x="138.85" y="150.11" width="4.58" height="69.4"/><rect class="cls-40" x="215.71" y="150.28" width="4.58" height="69.34"/><rect class="cls-18" x="178.59" y="208.62" width="4.37" height="6.33"/><rect class="cls-18" x="176.48" y="210.55" width="8.9" height="6.33"/><rect class="cls-18" x="174.09" y="213.24" width="13.57" height="6.33"/><rect class="cls-18" x="172.13" y="215.48" width="17.42" height="4.09"/></g><g id="Shirt_6"><polygon class="cls-34" points="173.84 107.03 162.06 106.82 162.03 118.95 162.03 125.33 198.04 125.33 198.04 107 185.52 107 185.52 118.73 173.86 118.73 173.84 107.03"/><path class="cls-34" d="M162.52,125.33H126.63v78s107.79-.64,108.43,0,0-78,0-78H162.52Z"/><rect class="cls-34" x="138.07" y="201.52" width="84.26" height="13.77"/><rect class="cls-28" x="138.07" y="143.43" width="11.88" height="71.26"/><rect class="cls-28" x="210.17" y="143.43" width="11.88" height="71.26"/><rect class="cls-28" x="176.27" y="125.85" width="6.6" height="77.69"/><rect class="cls-18" x="188.93" y="143.46" width="16.48" height="4.58"/><rect class="cls-38" x="136.68" y="123.26" width="22.16" height="6.58"/><rect class="cls-38" x="201.08" y="123.26" width="22.16" height="6.58"/></g><g id="Shirt_5"><path class="cls-18" d="M162.71,124.79H127.63v76.28s105.36-.63,106,0,0-76.28,0-76.28h-70.9Z"/><rect class="cls-18" x="150.53" y="124.98" width="58.67" height="75.78"/><rect class="cls-18" x="138.81" y="187.82" width="82.37" height="24.71"/><rect class="cls-30" x="138.81" y="142.48" width="11.62" height="70.03"/><rect class="cls-30" x="209.29" y="142.48" width="11.62" height="70.03"/><rect class="cls-45" x="173.73" y="132.67" width="12.4" height="47.92"/><rect class="cls-46" x="173.73" y="129.85" width="12.4" height="11.15"/><rect class="cls-45" x="175.38" y="178.97" width="9.1" height="3.65"/><rect class="cls-45" x="177.25" y="181.43" width="5.54" height="3.65"/><polygon class="cls-30" points="160.89 124.78 160.89 132.57 164.37 132.57 164.37 136.7 166.94 136.7 166.94 140.25 169.5 140.25 169.5 143.68 173.74 143.68 173.74 140.25 173.74 136.97 173.74 136.7 173.74 132.57 173.74 132.26 173.74 127.32 173.74 124.78 160.89 124.78"/><polygon class="cls-30" points="197.99 124.78 186.12 124.78 186.12 136.97 186.14 136.97 186.14 140.25 186.14 143.68 190.38 143.68 190.38 140.25 192.94 140.25 192.94 136.97 197.99 136.97 197.99 124.78"/></g><g id="Shirt_4"><rect class="cls-47" x="140.36" y="198.94" width="81.43" height="14.19"/><path class="cls-47" d="M233.62,126h-35.3V108.33H187.16V131h-2.9v6h-1.71v22.81h-3.26V137h-1.55v-6h-2.9V108.35l-11.29-.2,0,11.72V126h-35.9v75.42s105.37-.62,106,0S233.62,126,233.62,126Z"/><rect class="cls-48" x="140.28" y="137.96" width="12.66" height="75.16"/><rect class="cls-48" x="210.04" y="143.53" width="11.48" height="69.43"/><rect class="cls-48" x="179.91" y="159.77" width="1.86" height="52.65"/></g><g id="Shirt_3"><path class="cls-49" d="M162.74,125.69h-35V201.8s105.12-.62,105.75,0,0-76.11,0-76.11H162.74Z"/><polygon class="cls-49" points="186.18 120.05 186.18 130.75 173.81 130.75 173.81 120.05 150.59 120.05 150.59 201.49 209.12 201.49 209.12 120.05 186.18 120.05"/><rect class="cls-49" x="138.89" y="188.58" width="82.18" height="24.65"/><rect class="cls-50" x="138.89" y="143.34" width="11.59" height="69.87"/><rect class="cls-50" x="209.21" y="143.34" width="11.59" height="69.87"/><rect class="cls-49" x="150.64" y="156.84" width="58.61" height="11.49"/><rect class="cls-49" x="150.64" y="175.63" width="58.61" height="11.49"/><rect class="cls-37" x="189.52" y="143.43" width="16.91" height="4.46"/><rect class="cls-19" x="173.74" y="128.5" width="12.38" height="47.82"/><rect class="cls-15" x="173.74" y="125.68" width="12.38" height="11.13"/><rect class="cls-19" x="175.38" y="174.7" width="9.08" height="3.64"/><rect class="cls-19" x="177.25" y="177.15" width="5.53" height="3.64"/></g><g id="Shirt_2"><path class="cls-18" d="M161.61,125.44H125.92V208s107.19-.68,107.82,0,0-82.52,0-82.52H161.61Z"/><rect class="cls-30" x="174.47" y="130.32" width="8.44" height="73.27"/><rect class="cls-25" x="137.78" y="207.8" width="83.79" height="6.07"/><rect class="cls-30" x="137.78" y="141.43" width="11.82" height="66.24"/><rect class="cls-30" x="209.47" y="141.43" width="11.82" height="66.59"/><rect class="cls-51" x="137.74" y="207.79" width="11.86" height="6.08"/><rect class="cls-51" x="209.45" y="207.79" width="11.85" height="6.1"/><rect class="cls-38" x="223.21" y="142.61" width="10.7" height="4.38"/><rect class="cls-25" x="125.92" y="162.33" width="11.98" height="3.21"/><rect class="cls-25" x="221.37" y="162.33" width="12.72" height="3.21"/><rect class="cls-25" x="137.78" y="169.64" width="83.59" height="5.85"/><rect class="cls-51" x="137.78" y="169.64" width="11.86" height="5.85"/><rect class="cls-51" x="209.39" y="169.64" width="11.98" height="5.85"/><rect class="cls-25" x="186.16" y="130.07" width="22.51" height="6.33"/><rect class="cls-25" x="156.22" y="173.29" width="2.51" height="37.14"/><rect class="cls-25" x="200.41" y="173.29" width="2.51" height="37.14"/><rect class="cls-51" x="221.29" y="200.02" width="6.79" height="3.33"/><rect class="cls-51" x="130.91" y="200.02" width="6.79" height="3.33"/><rect class="cls-25" x="166.52" y="141.39" width="5.27" height="5.36"/><rect class="cls-25" x="157.9" y="141.39" width="5.27" height="5.36"/></g><g id="Shirt_1"><path class="cls-18" d="M161.55,122.92H126v78.93s106.9-.65,107.53,0,0-78.93,0-78.93H161.55Z"/><rect class="cls-18" x="149.2" y="123.12" width="59.52" height="78.4"/><rect class="cls-18" x="137.31" y="188.14" width="83.56" height="25.57"/><rect class="cls-30" x="137.31" y="141.23" width="8.75" height="72.45"/><rect class="cls-30" x="211.31" y="141.23" width="9.74" height="72.45"/><polygon class="cls-30" points="163.24 135.25 165.85 135.25 165.85 138.61 172.75 138.61 172.75 122.92 159.71 122.92 159.71 130.97 163.24 130.97 163.24 135.25"/><polygon class="cls-30" points="185.33 138.61 192.23 138.61 192.23 135.53 197.35 135.53 197.35 122.92 185.31 122.92 185.31 135.53 185.33 135.53 185.33 138.61"/><rect class="cls-30" x="178.63" y="132.28" width="1.27" height="81.04"/><polygon class="cls-19" points="175.65 126.94 174.03 126.94 174.03 125.56 172.55 125.56 172.55 124.31 167.97 124.31 167.97 125.56 166.65 125.56 166.65 139 167.97 139 167.97 140.25 172.55 140.25 172.55 139 174.03 139 174.03 137.63 175.65 137.63 175.65 126.94"/><polygon class="cls-19" points="182.84 126.94 184.46 126.94 184.46 125.56 185.94 125.56 185.94 124.31 190.53 124.31 190.53 125.56 191.84 125.56 191.84 139 190.53 139 190.53 140.25 185.94 140.25 185.94 139 184.46 139 184.46 137.63 182.84 137.63 182.84 126.94"/><rect class="cls-16" x="174.86" y="128.14" width="8.78" height="8.05"/><rect class="cls-37" x="193.89" y="142.71" width="16.35" height="4.63"/></g><g id="Hat_8"><rect class="cls-49" x="149.32" y="43.35" width="48.61" height="18.7"/><rect class="cls-49" x="152.83" y="37.63" width="41.41" height="5.91"/><rect class="cls-49" x="152.66" y="33.44" width="28.47" height="10.86"/><rect class="cls-38" x="152.62" y="43.24" width="14.35" height="14.35"/><rect class="cls-15" x="137.85" y="51.84" width="59.94" height="10.21"/><rect class="cls-17" x="143.41" y="51.84" width="47.85" height="5.74"/></g><g id="Hat_7"><rect class="cls-34" x="148.78" y="43.09" width="44.22" height="18.7"/><rect class="cls-34" x="134.01" y="52.78" width="15.48" height="9.02"/><rect class="cls-34" x="189.19" y="52.78" width="15.56" height="9.02"/><rect class="cls-38" x="148.78" y="42.98" width="14.35" height="14.35"/><rect class="cls-34" x="152.96" y="37.37" width="37.99" height="5.91"/><rect class="cls-34" x="157.85" y="29.44" width="28.47" height="10.86"/></g><g id="Hat_6"><rect class="cls-30" x="144.09" y="49.6" width="58.62" height="11.51"/><rect class="cls-18" x="151.86" y="6.03" width="44.48" height="43.82"/><rect class="cls-30" x="155.72" y="12.39" width="8.59" height="35.02"/><rect class="cls-30" x="169.81" y="12.39" width="8.59" height="35.02"/><rect class="cls-30" x="183.9" y="12.39" width="8.59" height="35.02"/></g><g id="Hat_5"><rect class="cls-15" x="149.58" y="44.23" width="48.61" height="18.7"/><rect class="cls-15" x="151.84" y="31.21" width="43.86" height="6.08"/><rect class="cls-15" x="147.05" y="34.32" width="50.42" height="10.86"/><rect class="cls-18" x="149.6" y="44.28" width="48.67" height="8.4"/><rect class="cls-15" x="149.58" y="44.23" width="4.63" height="4.3"/><rect class="cls-15" x="159.11" y="44.23" width="4.63" height="4.3"/><rect class="cls-15" x="168.63" y="44.23" width="4.63" height="4.3"/><rect class="cls-15" x="178.15" y="44.23" width="4.63" height="4.3"/><rect class="cls-15" x="187.67" y="44.23" width="4.63" height="4.3"/><rect class="cls-15" x="154.26" y="48.58" width="4.65" height="4.3"/><rect class="cls-15" x="163.82" y="48.58" width="4.65" height="4.3"/><rect class="cls-15" x="173.38" y="48.58" width="4.65" height="4.3"/><rect class="cls-15" x="182.94" y="48.58" width="4.65" height="4.3"/><rect class="cls-15" x="192.5" y="48.58" width="4.65" height="4.3"/><rect class="cls-15" x="197.19" y="44.23" width="1.1" height="4.3"/><rect class="cls-41" x="151.84" y="41.95" width="10.36" height="11.16"/><rect class="cls-15" x="138.11" y="52.73" width="60.18" height="10.21"/><rect class="cls-17" x="143.67" y="52.73" width="47.85" height="5.74"/></g><g id="Hat_4"><polygon class="cls-38" points="197.4 55.2 197.4 48.09 195.37 48.09 195.37 38.67 191.95 38.67 191.95 33.55 186.82 33.55 186.82 27.77 156.51 27.77 156.51 33.55 151.53 33.55 151.53 38.67 147.19 38.67 147.19 48.09 143.98 48.09 143.98 55.2 136.59 55.2 136.59 61.37 198.32 61.37 198.32 55.2 197.4 55.2"/><rect class="cls-38" x="139.08" y="51.93" width="4.86" height="3.25"/><polygon class="cls-37" points="196.8 55.93 195.76 55.93 195.76 53.36 193.79 53.36 193.79 52.28 191.75 52.28 191.75 48.38 189.79 48.38 189.79 39.81 156.59 39.81 156.59 48.38 153.37 48.38 153.37 52.28 150.73 52.28 150.73 53.36 141.37 53.36 141.37 55.93 136.54 55.93 136.54 61.44 141.37 61.44 141.37 63.03 195.76 63.03 195.76 61.44 196.8 61.44 196.8 55.93"/><rect class="cls-37" x="160.59" y="34.82" width="25.73" height="4.96"/></g><g id="Hat_3"><rect class="cls-52" x="167.34" y="113.72" width="29.26" height="10.77"/><rect class="cls-25" x="135.26" y="69.56" width="4.18" height="22.35"/><rect class="cls-25" x="205.01" y="64.9" width="7.49" height="29.88"/><rect class="cls-51" x="137.2" y="64.9" width="7.49" height="29.88"/><rect class="cls-53" x="186.47" y="95.78" width="11.57" height="7.22"/><rect class="cls-54" x="186.74" y="76.24" width="11.46" height="20.08"/><rect class="cls-54" x="165.01" y="92.24" width="21.44" height="10.35"/><rect class="cls-53" x="154.06" y="58.94" width="32.65" height="37.64"/><polygon class="cls-17" points="169.92 52.12 169.49 52.12 153.97 52.12 153.97 62.63 169.49 62.63 169.92 62.63 185.01 62.63 185.01 52.12 169.92 52.12"/><rect class="cls-17" x="186.41" y="48.85" width="11.66" height="27.88"/><polygon class="cls-18" points="175.77 102.23 165.01 102.03 164.98 113.65 164.98 119.76 197.89 119.76 197.89 102.21 186.44 102.21 186.44 113.44 175.79 113.44 175.77 102.23"/><rect class="cls-17" x="164.95" y="87.39" width="4.32" height="9.25"/><rect class="cls-30" x="173.33" y="113.72" width="15.4" height="10.38"/><rect class="cls-18" x="174.8" y="102.14" width="11.65" height="12.77"/><rect class="cls-55" x="177.75" y="52.23" width="8.75" height="36.5"/><rect class="cls-17" x="154.3" y="96.53" width="10.68" height="5.94"/><rect class="cls-54" x="156.39" y="69.93" width="6.31" height="17.32"/><rect class="cls-17" x="152.92" y="60.75" width="14.94" height="4.39"/><rect class="cls-17" x="163.14" y="65.6" width="4.26" height="4.26"/><rect class="cls-17" x="154.13" y="65.6" width="1.97" height="4.26"/><rect class="cls-17" x="151.86" y="81.44" width="13.09" height="5.95"/><rect class="cls-30" x="140.53" y="54.17" width="67.26" height="50.61"/><rect class="cls-30" x="146.16" y="48.43" width="55.45" height="10.71"/><rect class="cls-30" x="151.88" y="44.76" width="46.33" height="7.61"/><rect class="cls-30" x="156.49" y="40.78" width="36.19" height="8.38"/><rect class="cls-30" x="146.52" y="97.73" width="55.09" height="10.71" transform="translate(348.13 206.16) rotate(180)"/><rect class="cls-30" x="151.36" y="104.49" width="46.55" height="7.61" transform="translate(349.28 216.6) rotate(180)"/><rect class="cls-30" x="156.57" y="107.71" width="36.94" height="8.38" transform="translate(350.07 223.79) rotate(180)"/><rect class="cls-52" x="164.85" y="116.02" width="25.44" height="3.8"/><rect class="cls-52" x="156.51" y="111.69" width="8.36" height="4.4"/><rect class="cls-52" x="151.36" y="105.4" width="4.36" height="6.7"/><rect class="cls-52" x="146.23" y="102.3" width="5.22" height="6.22"/><rect class="cls-52" x="140.5" y="54.17" width="5.8" height="50.61"/><rect class="cls-52" x="155.55" y="108.09" width="6.31" height="4.04"/><rect class="cls-52" x="145.94" y="54.15" width="5.28" height="5.05"/><rect class="cls-52" x="146.16" y="51.15" width="5.79" height="3.08"/><rect class="cls-52" x="150.56" y="51.18" width="5.53" height="3.12"/><rect class="cls-52" x="151.73" y="48.28" width="4.36" height="2.9"/><polygon class="cls-17" points="203.47 59.26 198.15 59.26 198.15 54.37 195.22 54.37 195.22 51.25 190.45 51.25 190.45 47.86 159.26 47.86 159.26 51.25 155.28 51.25 155.28 54.37 150.35 54.37 150.35 59.26 145.49 59.26 145.49 102.34 150.66 102.34 150.66 105.46 154.84 105.46 154.84 108.58 159.32 108.58 159.32 111.97 191.16 111.97 191.16 108.58 195.12 108.58 195.12 105.46 198.15 105.46 198.15 102.34 203.47 102.34 203.47 59.26"/><polygon class="cls-15" points="198.15 59.26 198.15 54.37 195.22 54.37 195.22 51.25 190.45 51.25 190.45 47.86 159.26 47.86 159.26 51.25 155.28 51.25 155.28 54.37 150.35 54.37 150.35 59.26 145.49 59.26 145.49 74.62 150.11 74.62 150.11 71.5 154.09 71.5 154.09 68.11 185.28 68.11 185.28 71.5 190.04 71.5 190.04 74.62 192.97 74.62 192.97 79.51 198.29 79.51 198.29 102.34 203.47 102.34 203.47 59.26 198.15 59.26"/><rect class="cls-30" x="186.15" y="116.01" width="5.02" height="3.84"/><rect class="cls-15" x="153.57" y="74.18" width="5.72" height="5.72"/><rect class="cls-15" x="146.6" y="81.16" width="5.72" height="5.72"/><rect class="cls-17" x="185.55" y="60.02" width="5.28" height="5.28"/><rect class="cls-25" x="210.77" y="69.56" width="4.18" height="22.35"/></g><g id="Hat_2"><polygon class="cls-34" points="167.86 50.76 167 50.76 136.19 50.76 136.19 61.84 167 61.84 167.86 61.84 197.83 61.84 197.83 50.76 167.86 50.76"/><polygon class="cls-34" points="170.93 41.29 170.31 41.29 148.08 41.29 148.08 52.38 170.31 52.38 170.93 52.38 192.55 52.38 192.55 41.29 170.93 41.29"/><polygon class="cls-18" points="162.16 41.29 161.95 41.29 154.24 41.29 154.24 52.38 161.95 52.38 162.16 52.38 169.65 52.38 169.65 41.29 162.16 41.29"/><polygon class="cls-34" points="171.13 36.89 170.64 36.89 152.92 36.89 152.92 44.89 170.64 44.89 171.13 44.89 188.37 44.89 188.37 36.89 171.13 36.89"/><polygon class="cls-34" points="170.32 32.05 169.98 32.05 157.77 32.05 157.77 42.03 169.98 42.03 170.32 42.03 182.2 42.03 182.2 32.05 170.32 32.05"/><rect class="cls-34" x="182.9" y="55.69" width="19.68" height="23.81"/><rect class="cls-34" x="186.86" y="66.92" width="14.95" height="23.81"/><rect class="cls-34" x="189.56" y="79.32" width="10.04" height="19.55"/><rect class="cls-18" x="190.57" y="68.89" width="7.49" height="9.61"/><rect class="cls-28" x="141.91" y="50.76" width="41.61" height="6.16"/><rect class="cls-28" x="181.84" y="36.89" width="6.53" height="6.53"/><rect class="cls-28" x="185.95" y="41.29" width="6.53" height="6.53"/><rect class="cls-28" x="191.45" y="50.76" width="6.53" height="6.53"/></g><g id="Hat_1"><rect class="cls-34" x="148.95" y="44.04" width="50.4" height="18.77"/><rect class="cls-34" x="151.57" y="40.47" width="44.8" height="5.93"/><rect class="cls-38" x="148.87" y="54.11" width="50.65" height="4.39"/></g></svg>